<svg width="99" height="36" viewBox="0 0 99 36" fill="none" xmlns="http://www.w3.org/2000/svg">
<path d="M13.8739 35.5C15.1806 35.5 16.1606 34.7921 17.3273 33.8011C19.9407 31.5358 21.9473 28.6098 23.534 26.1558C24.1407 25.2592 24.094 24.1265 23.3007 23.6074C22.134 22.8995 21.3407 23.8434 20.594 24.976C19.334 26.8637 18.354 28.2795 17.234 29.4593C16.3939 30.4032 14.4806 32.4325 13.8272 32.2437C12.9872 32.0549 12.7539 29.3649 12.7539 27.3828C12.7539 26.9581 12.8939 26.5334 13.1272 26.203L14.2006 24.6457C17.5606 19.7376 20.034 15.0655 21.714 10.299C22.6474 7.65624 23.7674 4.16397 21.714 3.03134C19.9407 2.04029 17.9806 3.9752 16.4873 6.14606C14.4339 9.16641 12.8006 12.7059 11.6806 16.3869C11.5406 16.7173 11.4939 16.7173 11.1672 16.5757C9.7672 15.8678 8.32051 15.915 6.68716 16.8588C2.76711 19.0769 0.340412 24.3625 0.0137411 29.7897C-0.172928 32.7156 1.55376 35.5 4.4938 34.6505C5.75381 34.273 6.82716 33.4707 9.44053 30.8279C9.7672 30.4976 9.72053 30.5448 9.81386 30.9223C10.2339 32.4797 10.4205 32.9988 10.6539 33.4235C11.3072 34.5561 12.3806 35.5 13.8739 35.5ZM14.3406 18.5106C15.7406 13.6497 17.0006 11.0069 19.334 7.65624L19.194 8.12816C17.934 12.3283 16.3473 15.5374 14.5739 18.1802C14.4806 18.3218 14.4339 18.4162 14.3406 18.5106ZM3.60712 31.4886C3.28045 31.3942 3.14045 30.9695 3.14045 29.7425C3.14045 26.6749 4.21379 24.0793 5.75381 21.9557C6.64049 20.7286 8.60052 18.9353 9.39386 19.3129C10.0472 19.6432 10.2805 21.3422 10.1405 22.8995C10.0005 24.8344 9.30052 26.439 7.90051 27.8548C6.03382 29.7425 4.4938 31.7246 3.60712 31.4886Z" fill="white"/>
<path d="M25.6765 34.5561C28.3832 34.5561 32.91 31.347 33.1433 29.0818C33.1433 28.3267 32.8166 27.6188 31.7899 27.6188C30.0166 27.666 27.9166 31.4886 25.8165 31.4414C24.3699 31.4414 23.6232 29.7425 23.8098 27.7604C23.8565 27.2884 24.0432 27.0997 24.4632 26.9581C27.0766 26.0614 29.3632 24.5985 31.5566 21.8141C32.2566 20.9174 32.77 19.9264 33.0033 18.8881C33.61 16.3869 31.8366 14.2632 29.3166 14.3576C24.6499 14.5936 20.5431 23.1355 20.6831 29.2234C20.7765 31.9133 22.7365 34.5561 25.6765 34.5561ZM25.2099 23.2771C25.1165 23.3243 24.9299 23.3714 25.0232 23.1355C26.0032 21.1534 26.7965 19.596 27.9632 18.4162C28.8499 17.5195 29.9233 17.2364 29.9233 18.0387C29.9233 19.5488 27.3566 22.1916 25.2099 23.2771Z" fill="white"/>
<path d="M40.6352 34.9337C42.9219 34.9337 45.6753 32.9044 47.7286 30.8279C48.382 29.9784 48.7553 29.4121 48.1486 28.5627C47.682 27.9491 46.842 27.8548 46.0953 28.2323C44.9753 28.893 42.5952 31.6302 40.5885 31.7718C38.6285 31.9133 38.5352 29.9312 39.0019 27.4772C39.7019 23.9378 41.0086 21.1534 43.2019 18.9353C43.6219 18.5106 44.5553 17.6611 44.8819 17.8027C45.2086 17.8971 45.3486 19.1241 45.4886 19.5016C45.7686 20.1623 46.3753 20.5871 46.982 20.4927C47.7286 20.3983 48.4286 19.7376 48.4286 18.5106C48.4286 17.378 47.962 16.4341 47.3553 15.679C46.422 14.4992 44.9753 14.1688 43.5752 14.7824C39.1885 16.7173 35.6418 23.513 35.6418 29.2705C35.6418 32.81 37.2285 34.9337 40.6352 34.9337Z" fill="white"/>
<path d="M50.3059 35.0281C50.7726 35.0281 51.2393 34.9337 51.6126 34.3674C52.1259 33.6123 52.7793 29.7897 53.0593 28.657C53.1993 28.0907 53.2926 28.0435 53.8993 28.1851C55.8126 28.5627 58.8927 31.0639 61.366 33.1876C62.2994 33.9426 63.0927 34.6505 64.0727 33.7539C64.6328 33.2347 64.7261 32.4797 64.3528 31.8662C63.7927 31.0167 61.8794 29.3649 60.9927 28.7514L57.1193 26.0142C57.0727 25.9199 57.726 25.4951 59.1727 24.5041C62.2527 22.4276 65.4728 19.7848 66.6861 17.378C67.0128 16.7173 66.8261 15.915 66.2661 15.4902C65.6594 15.0655 64.8194 15.1127 64.2127 15.7262C62.9061 17.0476 62.1594 18.5578 59.826 20.2095C58.4727 21.1534 57.026 22.0972 55.6726 23.0411L54.9726 23.513C54.646 23.7018 54.3193 23.7962 54.8326 23.3242C58.146 20.2567 60.8994 16.7173 63.2327 13.225C65.4261 9.96868 66.9661 6.52361 66.9661 3.31449C66.9661 1.19082 65.2861 -0.0833904 62.8594 0.766081C59.3127 2.04029 55.4393 9.54395 53.8993 14.0745C52.1726 19.2657 48.3926 32.574 49.0926 34.1314C49.3259 34.6505 49.7926 35.0281 50.3059 35.0281ZM56.0926 17.5667C56.0926 15.9622 59.4527 9.02483 61.086 6.61799C61.646 5.76852 63.3261 3.88081 63.6994 3.88081C64.3994 3.88081 62.2061 8.93044 60.946 10.9597C60.0594 12.3283 56.0926 17.8027 56.0926 17.5667Z" fill="white"/>
<path d="M82.4547 22.1444C83.2014 21.9557 83.6214 21.295 83.5747 20.5399C83.5281 19.832 83.1081 19.4544 82.3614 19.2185C81.6614 19.0297 71.8613 18.8409 70.9746 19.1241C70.3679 19.3129 69.9479 19.8792 69.9479 20.5871C69.9479 21.2478 70.4146 21.7669 71.0679 21.9557C72.1413 22.2388 81.7547 22.3804 82.4547 22.1444Z" fill="white"/>
<path d="M90.3459 34.1786C92.4459 34.1786 94.9659 32.5269 96.5059 30.4032C98.6993 27.3356 99.446 24.3153 98.746 21.2006C98.3726 19.5488 97.7193 17.378 95.4793 16.6229C95.3393 16.5757 95.1992 16.4813 95.1059 16.3397C93.3792 14.5936 91.0925 16.0094 89.2258 18.3218C87.1258 20.9174 85.9125 24.0321 85.9125 28.7042C85.9125 31.3942 87.4992 34.1786 90.3459 34.1786ZM90.5792 30.9695C89.5059 31.1111 89.0392 30.12 89.0392 29.129C89.0392 25.5895 91.1859 18.8881 93.3792 18.8881C94.6859 18.8881 95.8526 21.6725 95.8526 23.9378C95.8526 26.9581 93.0992 30.6863 90.5792 30.9695Z" fill="white"/>
</svg>
