<svg width="99" height="35" viewBox="0 0 99 35" fill="none" xmlns="http://www.w3.org/2000/svg">
<path d="M13.8739 35C15.1806 35 16.1606 34.2921 17.3273 33.3011C19.9407 31.0358 21.9473 28.1098 23.534 25.6558C24.1407 24.7592 24.094 23.6265 23.3007 23.1074C22.134 22.3995 21.3407 23.3434 20.594 24.476C19.334 26.3637 18.354 27.7795 17.234 28.9593C16.3939 29.9032 14.4806 31.9325 13.8272 31.7437C12.9872 31.5549 12.7539 28.8649 12.7539 26.8828C12.7539 26.4581 12.8939 26.0334 13.1272 25.703L14.2006 24.1457C17.5606 19.2376 20.034 14.5655 21.714 9.79903C22.6474 7.15624 23.7674 3.66397 21.714 2.53134C19.9407 1.54029 17.9806 3.4752 16.4873 5.64606C14.4339 8.66641 12.8006 12.2059 11.6806 15.8869C11.5406 16.2173 11.4939 16.2173 11.1672 16.0757C9.7672 15.3678 8.32051 15.415 6.68716 16.3588C2.76711 18.5769 0.340412 23.8625 0.0137411 29.2897C-0.172928 32.2156 1.55376 35 4.4938 34.1505C5.75381 33.773 6.82716 32.9707 9.44053 30.3279C9.7672 29.9976 9.72053 30.0448 9.81386 30.4223C10.2339 31.9797 10.4205 32.4988 10.6539 32.9235C11.3072 34.0561 12.3806 35 13.8739 35ZM14.3406 18.0106C15.7406 13.1497 17.0006 10.5069 19.334 7.15624L19.194 7.62816C17.934 11.8283 16.3473 15.0374 14.5739 17.6802C14.4806 17.8218 14.4339 17.9162 14.3406 18.0106ZM3.60712 30.9886C3.28045 30.8942 3.14045 30.4695 3.14045 29.2425C3.14045 26.1749 4.21379 23.5793 5.75381 21.4557C6.64049 20.2286 8.60052 18.4353 9.39386 18.8129C10.0472 19.1432 10.2805 20.8422 10.1405 22.3995C10.0005 24.3344 9.30052 25.939 7.90051 27.3548C6.03382 29.2425 4.4938 31.2246 3.60712 30.9886Z" fill="#4D4D4D"/>
<path d="M25.6765 34.0561C28.3832 34.0561 32.91 30.847 33.1433 28.5818C33.1433 27.8267 32.8166 27.1188 31.7899 27.1188C30.0166 27.166 27.9166 30.9886 25.8165 30.9414C24.3699 30.9414 23.6232 29.2425 23.8098 27.2604C23.8565 26.7884 24.0432 26.5997 24.4632 26.4581C27.0766 25.5614 29.3632 24.0985 31.5566 21.3141C32.2566 20.4174 32.77 19.4264 33.0033 18.3881C33.61 15.8869 31.8366 13.7632 29.3166 13.8576C24.6499 14.0936 20.5431 22.6355 20.6831 28.7234C20.7765 31.4133 22.7365 34.0561 25.6765 34.0561ZM25.2099 22.7771C25.1165 22.8243 24.9299 22.8714 25.0232 22.6355C26.0032 20.6534 26.7965 19.096 27.9632 17.9162C28.8499 17.0195 29.9233 16.7364 29.9233 17.5387C29.9233 19.0488 27.3566 21.6916 25.2099 22.7771Z" fill="#4D4D4D"/>
<path d="M40.6352 34.4337C42.9219 34.4337 45.6753 32.4044 47.7286 30.3279C48.382 29.4784 48.7553 28.9121 48.1486 28.0627C47.682 27.4491 46.842 27.3548 46.0953 27.7323C44.9753 28.393 42.5952 31.1302 40.5885 31.2718C38.6285 31.4133 38.5352 29.4312 39.0019 26.9772C39.7019 23.4378 41.0086 20.6534 43.2019 18.4353C43.6219 18.0106 44.5553 17.1611 44.8819 17.3027C45.2086 17.3971 45.3486 18.6241 45.4886 19.0016C45.7686 19.6623 46.3753 20.0871 46.982 19.9927C47.7286 19.8983 48.4286 19.2376 48.4286 18.0106C48.4286 16.878 47.962 15.9341 47.3553 15.179C46.422 13.9992 44.9753 13.6688 43.5752 14.2824C39.1885 16.2173 35.6418 23.013 35.6418 28.7705C35.6418 32.31 37.2285 34.4337 40.6352 34.4337Z" fill="#4D4D4D"/>
<path d="M50.3059 34.5281C50.7726 34.5281 51.2393 34.4337 51.6126 33.8674C52.1259 33.1123 52.7793 29.2897 53.0593 28.157C53.1993 27.5907 53.2926 27.5435 53.8993 27.6851C55.8126 28.0627 58.8927 30.5639 61.366 32.6876C62.2994 33.4426 63.0927 34.1505 64.0727 33.2539C64.6328 32.7347 64.7261 31.9797 64.3528 31.3662C63.7927 30.5167 61.8794 28.8649 60.9927 28.2514L57.1193 25.5142C57.0727 25.4199 57.726 24.9951 59.1727 24.0041C62.2527 21.9276 65.4728 19.2848 66.6861 16.878C67.0128 16.2173 66.8261 15.415 66.2661 14.9902C65.6594 14.5655 64.8194 14.6127 64.2127 15.2262C62.9061 16.5476 62.1594 18.0578 59.826 19.7095C58.4727 20.6534 57.026 21.5972 55.6726 22.5411L54.9726 23.013C54.646 23.2018 54.3193 23.2962 54.8326 22.8242C58.146 19.7567 60.8994 16.2173 63.2327 12.725C65.4261 9.46868 66.9661 6.02361 66.9661 2.81449C66.9661 0.690816 65.2861 -0.58339 62.8594 0.266081C59.3127 1.54029 55.4393 9.04395 53.8993 13.5745C52.1726 18.7657 48.3926 32.074 49.0926 33.6314C49.3259 34.1505 49.7926 34.5281 50.3059 34.5281ZM56.0926 17.0667C56.0926 15.4622 59.4527 8.52483 61.086 6.11799C61.646 5.26852 63.3261 3.38081 63.6994 3.38081C64.3994 3.38081 62.2061 8.43044 60.946 10.4597C60.0594 11.8283 56.0926 17.3027 56.0926 17.0667Z" fill="#4D4D4D"/>
<path d="M82.4547 21.6444C83.2014 21.4557 83.6214 20.795 83.5747 20.0399C83.5281 19.332 83.1081 18.9544 82.3614 18.7185C81.6614 18.5297 71.8613 18.3409 70.9746 18.6241C70.3679 18.8129 69.9479 19.3792 69.9479 20.0871C69.9479 20.7478 70.4146 21.2669 71.0679 21.4557C72.1413 21.7388 81.7547 21.8804 82.4547 21.6444Z" fill="#4D4D4D"/>
<path d="M90.3459 33.6786C92.4459 33.6786 94.9659 32.0269 96.5059 29.9032C98.6993 26.8356 99.446 23.8153 98.746 20.7006C98.3726 19.0488 97.7193 16.878 95.4793 16.1229C95.3393 16.0757 95.1992 15.9813 95.1059 15.8397C93.3792 14.0936 91.0925 15.5094 89.2258 17.8218C87.1258 20.4174 85.9125 23.5321 85.9125 28.2042C85.9125 30.8942 87.4992 33.6786 90.3459 33.6786ZM90.5792 30.4695C89.5059 30.6111 89.0392 29.62 89.0392 28.629C89.0392 25.0895 91.1859 18.3881 93.3792 18.3881C94.6859 18.3881 95.8526 21.1725 95.8526 23.4378C95.8526 26.4581 93.0992 30.1863 90.5792 30.4695Z" fill="#4D4D4D"/>
</svg>
