<svg width="178" height="123" viewBox="0 0 178 123" fill="none" xmlns="http://www.w3.org/2000/svg">
<ellipse cx="88" cy="120.5" rx="36" ry="2.5" fill="#AAE7D3"/>
<path d="M31.8542 91.8126C32.0743 92.5025 32.0197 93.249 31.7025 93.8877C31.3852 94.5265 30.8313 95.0051 30.1625 95.2185L9.99019 101.653C9.32144 101.866 8.59264 101.797 7.96413 101.46C7.33562 101.123 6.85889 100.546 6.6388 99.8557L0.82985 81.6446C0.60976 80.9546 0.664346 80.2081 0.9816 79.5694C1.29885 78.9306 1.85279 78.452 2.52154 78.2387L8.8254 76.2279L12.5917 79.3259L23.9387 75.7065C24.6074 75.4932 25.3362 75.5627 25.9647 75.8998C26.5932 76.2368 27.07 76.8138 27.2901 77.5038L31.8542 91.8126Z" fill="#AAE7D3"/>
<path d="M173.247 61.9633C173.104 62.5847 172.728 63.1256 172.201 63.4671C171.674 63.8086 171.04 63.9227 170.437 63.7842L152.271 59.6081C151.669 59.4697 151.148 59.0901 150.823 58.5528C150.498 58.0155 150.396 57.3646 150.539 56.7432L154.309 40.3429C154.451 39.7215 154.828 39.1806 155.355 38.8391C155.881 38.4976 156.516 38.3836 157.118 38.522L162.795 39.827L164.258 43.8634L174.477 46.2124C175.079 46.3509 175.6 46.7305 175.925 47.2678C176.249 47.805 176.352 48.456 176.209 49.0773L173.247 61.9633Z" fill="#AAE7D3"/>
<path d="M28.9002 53.3086C29.0515 53.7829 29.014 54.2961 28.7959 54.7353C28.5778 55.1744 28.1969 55.5035 27.7372 55.6502L13.8684 60.074C13.4086 60.2207 12.9076 60.1729 12.4755 59.9411C12.0433 59.7094 11.7156 59.3127 11.5643 58.8383L7.57053 46.3179C7.41922 45.8436 7.45675 45.3303 7.67486 44.8912C7.89298 44.4521 8.27382 44.123 8.7336 43.9763L13.0676 42.5939L15.657 44.7238L23.4582 42.2354C23.9179 42.0888 24.419 42.1366 24.8511 42.3683C25.2832 42.6 25.611 42.9967 25.7623 43.4711L28.9002 53.3086Z" fill="#AAE7D3"/>
<path d="M160.473 103.05C160.165 103.441 159.72 103.699 159.234 103.765C158.748 103.831 158.262 103.701 157.882 103.403L146.431 94.4148C146.052 94.1169 145.81 93.6755 145.759 93.1878C145.708 92.7002 145.852 92.2062 146.159 91.8145L154.273 81.4768C154.581 81.0851 155.027 80.8279 155.512 80.7616C155.998 80.6954 156.484 80.8256 156.864 81.1235L160.442 83.9323L160.135 87.2711L166.576 92.327C166.956 92.625 167.198 93.0663 167.249 93.554C167.3 94.0416 167.156 94.5356 166.848 94.9273L160.473 103.05Z" fill="#AAE7D3"/>
<path d="M140 51C140 79.1662 117.166 102 89 102C60.8367 102 38 79.1662 38 51C38 22.8367 60.8367 0 89 0C117.166 0 140 22.8367 140 51Z" fill="#FFCC4D"/>
<path d="M70.5833 56.6673C74.4954 56.6673 77.6667 52.2275 77.6667 46.7507C77.6667 41.2738 74.4954 36.834 70.5833 36.834C66.6713 36.834 63.5 41.2738 63.5 46.7507C63.5 52.2275 66.6713 56.6673 70.5833 56.6673Z" fill="#664500"/>
<path d="M107.417 56.6673C111.329 56.6673 114.5 52.2275 114.5 46.7507C114.5 41.2738 111.329 36.834 107.417 36.834C103.505 36.834 100.333 41.2738 100.333 46.7507C100.333 52.2275 103.505 56.6673 107.417 56.6673Z" fill="#664500"/>
<path d="M72 79.3332C77.6667 65.1666 108.833 65.1666 108.833 70.8332C108.833 73.6666 86.1667 67.9999 72 79.3332Z" fill="#664500"/>
</svg>
