<svg width="188" height="123" viewBox="0 0 188 123" fill="none" xmlns="http://www.w3.org/2000/svg">
<ellipse cx="91" cy="120.5" rx="36" ry="2.5" fill="#AAE7D3"/>
<g clip-path="url(#clip0)">
<path d="M140.167 48.1667C140.167 74.7688 118.602 96.3333 92 96.3333C65.3978 96.3333 43.8333 74.7688 43.8333 48.1667C43.8333 21.5645 65.3978 0 92 0C118.602 0 140.167 21.5645 140.167 48.1667Z" fill="#FFCB4C"/>
<path d="M91.4673 70.9894C97.8236 70.9894 102.976 68.5411 102.976 65.5211C102.976 62.501 97.8236 60.0527 91.4673 60.0527C85.1111 60.0527 79.9583 62.501 79.9583 65.5211C79.9583 68.5411 85.1111 70.9894 91.4673 70.9894Z" fill="#65471B"/>
<path d="M112.825 73.6134L112.731 73.5568C110.354 72.0976 107.215 72.8484 105.756 75.2256L105.328 75.9198C103.792 74.3274 101.786 73.1601 99.4685 72.6869L95.5047 71.8766L99.1087 54.2419C99.6669 51.5078 97.8875 48.8161 95.1562 48.2579L95.0485 48.2353C92.3144 47.6771 89.6227 49.4564 89.0645 52.1878L84.3244 75.3729L84.2819 75.5826L83.395 79.9204L83.3922 79.9488L80.1962 95.6256C79.5729 98.6799 80.9612 102.001 85.5654 102.001H94.8332C102.778 102.001 105.132 99.1389 106.728 93.2371L114.494 80.5919C115.95 78.2148 115.202 75.0754 112.825 73.6134Z" fill="#F19020"/>
<path d="M104.492 87.1056C104.435 87.1056 104.373 87.0999 104.311 87.0886C103.789 86.9922 103.447 86.4879 103.549 85.9637C103.716 85.0797 103.543 84.3006 103.019 83.5866C101.347 81.2972 96.5333 80.2574 94.8191 80.0506C94.2921 79.9882 93.9153 79.5066 93.9804 78.9824C94.0428 78.4554 94.5018 78.0729 95.0486 78.1437C95.3348 78.1749 102.058 79.0221 104.569 82.4532C105.413 83.6064 105.705 84.9126 105.436 86.3292C105.348 86.7854 104.945 87.1056 104.492 87.1056ZM95.2583 100.507C94.5414 100.507 93.7566 100.419 92.8981 100.218C91.1698 99.8102 89.9514 98.8044 89.5548 97.4557C89.2204 96.3196 89.5264 95.1182 90.3736 94.2399C91.4729 93.1009 93.2154 92.7269 95.1761 93.2256C95.6889 93.3559 96.0006 93.8801 95.8703 94.3957C95.7399 94.9057 95.2214 95.2202 94.7001 95.0899C93.4393 94.7669 92.3626 94.9482 91.7591 95.5744C91.3964 95.9484 91.2633 96.4499 91.3993 96.9146C91.5948 97.5832 92.3031 98.1074 93.3401 98.3482C96.6834 99.1331 98.5336 97.8212 99.4998 96.5774C100.939 94.7272 101.109 92.2197 100.596 91.2366C99.4006 88.9359 94.7908 88.4259 93.1163 88.4231C92.5864 88.4231 92.1558 87.9924 92.1558 87.4626C92.1558 86.9327 92.5864 86.5021 93.1163 86.5021C93.4081 86.5021 100.319 86.5446 102.302 90.3526C103.166 92.0101 102.92 95.3137 101.016 97.7589C100.143 98.8752 98.3438 100.507 95.2583 100.507ZM81.2956 37.4627C81.2956 41.4039 78.8986 44.5999 75.9434 44.5999C72.9883 44.5999 70.5913 41.4067 70.5913 37.4627C70.5913 33.5216 72.9854 30.3256 75.9434 30.3256C78.8986 30.3284 81.2956 33.5216 81.2956 37.4627ZM125.677 29.1016C126.306 29.1016 126.938 28.9061 127.482 28.4981C128.813 27.5007 129.08 25.6137 128.082 24.2849C118.262 11.1892 105.155 11.0391 104.603 11.0391C102.939 11.0391 101.594 12.3877 101.594 14.0509C101.594 15.7084 102.934 17.0542 104.591 17.0599C105.062 17.0656 115.335 17.3177 123.269 27.8974C123.858 28.6851 124.762 29.1016 125.677 29.1016ZM102.704 37.4627C102.704 41.4039 105.101 44.5999 108.056 44.5999C111.012 44.5999 113.409 41.4067 113.409 37.4627C113.409 33.5216 111.014 30.3256 108.056 30.3256C105.098 30.3284 102.704 33.5216 102.704 37.4627ZM58.3229 29.1016C57.6939 29.1016 57.0621 28.9061 56.5181 28.4981C55.1893 27.5007 54.9201 25.6137 55.9174 24.2849C65.7378 11.1892 78.8448 11.0391 79.3973 11.0391C81.0604 11.0391 82.4063 12.3877 82.4063 14.0509C82.4063 15.7084 81.0661 17.0542 79.4086 17.0599C78.9383 17.0656 68.6646 17.3177 60.7313 27.8974C60.1419 28.6851 59.2381 29.1016 58.3229 29.1016Z" fill="#65471B"/>
</g>
<g clip-path="url(#clip1)">
<path d="M20.8224 93.4169L28.0221 83.5746L29.6288 81.39L15.8042 75.815L6.99781 87.842L9.5024 88.8544L20.8224 93.4169ZM21.7329 96.6104L10.4003 92.0515L8.81512 94.2163L22.6397 99.7913L31.4461 87.7644L28.9415 86.7519L21.7329 96.6104Z" fill="#AAE7D3"/>
</g>
<g clip-path="url(#clip2)">
<path d="M21.3325 53.6345L25.9424 47.3325L26.9711 45.9337L18.1193 42.3641L12.4807 50.0649L14.0843 50.7132L21.3325 53.6345ZM21.9154 55.6793L14.6592 52.7602L13.6443 54.1464L22.4961 57.716L28.1348 50.0152L26.5311 49.3669L21.9154 55.6793Z" fill="#AAE7D3"/>
</g>
<g clip-path="url(#clip3)">
<path d="M166.919 56.3584L178.197 51.7219L180.708 50.6973L171.827 38.7256L158.037 44.3867L159.645 46.5578L166.919 56.3584ZM166.028 59.5576L158.742 49.7534L156.26 50.7724L165.141 62.7441L178.931 57.0829L177.323 54.9119L166.028 59.5576Z" fill="#AAE7D3"/>
</g>
<g clip-path="url(#clip4)">
<path d="M157.494 92.985L165.358 89.7521L167.109 89.0377L160.916 80.6903L151.301 84.6376L152.422 86.1514L157.494 92.985ZM156.873 95.2156L151.793 88.3795L150.062 89.09L156.254 97.4375L165.869 93.4901L164.748 91.9764L156.873 95.2156Z" fill="#AAE7D3"/>
</g>
<defs>
<clipPath id="clip0">
<rect width="102" height="102" fill="white" transform="translate(41)"/>
</clipPath>
<clipPath id="clip1">
<rect width="31.377" height="31.377" fill="white" transform="translate(0 77.6016) rotate(-15.9126)"/>
</clipPath>
<clipPath id="clip2">
<rect width="20.0905" height="20.0905" fill="white" transform="translate(8 43.5078) rotate(-15.9126)"/>
</clipPath>
<clipPath id="clip3">
<rect width="31.377" height="31.377" fill="white" transform="translate(157.414 32) rotate(15.5548)"/>
</clipPath>
<clipPath id="clip4">
<rect width="21.878" height="21.878" fill="white" transform="translate(150.867 76) rotate(15.5548)"/>
</clipPath>
</defs>
</svg>
