<svg width="1920" height="960" viewBox="0 0 1920 960" fill="none" xmlns="http://www.w3.org/2000/svg">
<rect width="1920" height="960" fill="white"/>
<path d="M610.688 578.194L482.039 630.17C478.63 631.545 474.814 631.511 471.429 630.075C468.044 628.639 465.368 625.918 463.988 622.511L386.011 429.537C385.328 427.847 384.985 426.039 385.001 424.217C385.017 422.394 385.392 420.593 386.104 418.915C386.817 417.237 387.853 415.717 389.153 414.439C390.454 413.162 391.993 412.154 393.683 411.472L522.332 359.496C524.022 358.813 525.83 358.47 527.653 358.486C529.476 358.502 531.277 358.877 532.955 359.59C534.632 360.303 536.153 361.339 537.43 362.639C538.707 363.94 539.716 365.479 540.398 367.169L618.347 560.129C619.722 563.54 619.686 567.358 618.247 570.743C616.809 574.128 614.085 576.803 610.675 578.18L610.688 578.194ZM569.369 536.125C565.689 536.125 562.16 537.587 559.558 540.189C556.956 542.791 555.494 546.32 555.494 550C555.494 553.68 556.956 557.209 559.558 559.811C562.16 562.413 565.689 563.875 569.369 563.875C573.049 563.875 576.578 562.413 579.18 559.811C581.782 557.209 583.244 553.68 583.244 550C583.244 546.32 581.782 542.791 579.18 540.189C576.578 537.587 573.049 536.125 569.369 536.125Z" fill="#7D98FF"/>
<path d="M597.119 369.625L571.311 369.625L610.994 467.832L610.994 383.5C610.994 379.82 609.532 376.291 606.93 373.689C604.328 371.087 600.799 369.625 597.119 369.625Z" fill="#F7AD53"/>
<path d="M657.475 406.019L638.744 398.457L638.744 489.408L665.134 424.084C666.514 420.673 666.482 416.853 665.046 413.466C663.609 410.078 660.886 407.399 657.475 406.019Z" fill="#71BA9A"/>
<path d="M823.28 618C834.209 618 842.405 612.135 852.163 603.923C874.02 585.154 890.803 560.91 904.074 540.577C909.148 533.147 908.757 523.763 902.122 519.461C892.365 513.596 885.729 521.417 879.484 530.801C868.946 546.442 860.75 558.173 851.382 567.949C844.357 575.769 828.354 592.583 822.89 591.019C815.864 589.455 813.913 567.167 813.913 550.743C813.913 547.224 815.084 543.705 817.035 540.968L826.012 528.064C854.114 487.397 874.801 448.686 888.852 409.192C896.658 387.295 906.025 358.359 888.852 348.974C874.02 340.762 857.627 356.794 845.137 374.782C827.964 399.807 814.303 429.134 804.936 459.634C803.765 462.372 803.374 462.372 800.642 461.198C788.933 455.333 776.833 455.724 763.173 463.545C730.387 481.923 710.091 525.718 707.359 570.686C705.797 594.929 720.239 618 744.828 610.962C755.366 607.833 764.344 601.186 786.201 579.288C788.933 576.551 788.543 576.942 789.323 580.07C792.836 592.974 794.397 597.276 796.349 600.795C801.813 610.179 810.79 618 823.28 618ZM827.183 477.231C838.892 436.955 849.431 415.057 868.946 387.295L867.775 391.205C857.237 426.006 843.966 452.596 829.135 474.493C828.354 475.666 827.964 476.449 827.183 477.231ZM737.412 584.763C734.68 583.981 733.509 580.461 733.509 570.295C733.509 544.878 742.486 523.372 755.366 505.775C762.782 495.609 779.175 480.75 785.81 483.878C791.275 486.615 793.226 500.692 792.055 513.596C790.884 529.628 785.03 542.923 773.321 554.654C757.708 570.295 744.828 586.718 737.412 584.763Z" fill="#4D4D4D"/>
<path d="M921.993 610.179C944.631 610.179 982.491 583.59 984.442 564.82C984.442 558.564 981.71 552.699 973.123 552.699C958.292 553.09 940.728 584.763 923.164 584.372C911.064 584.372 904.819 570.295 906.381 553.872C906.771 549.961 908.332 548.397 911.845 547.224C933.702 539.795 952.827 527.673 971.172 504.602C977.026 497.173 981.32 488.961 983.271 480.359C988.345 459.634 973.514 442.038 952.437 442.82C913.406 444.775 879.059 515.551 880.23 565.994C881.011 588.282 897.403 610.179 921.993 610.179ZM918.09 516.724C917.309 517.115 915.748 517.506 916.529 515.551C924.725 499.128 931.36 486.224 941.118 476.449C948.534 469.019 957.511 466.673 957.511 473.32C957.511 485.833 936.044 507.731 918.09 516.724Z" fill="#4D4D4D"/>
<path d="M1047.1 613.308C1066.23 613.308 1089.26 596.494 1106.43 579.288C1111.89 572.25 1115.02 567.558 1109.94 560.519C1106.04 555.436 1099.01 554.654 1092.77 557.782C1083.4 563.256 1063.49 585.936 1046.71 587.109C1030.32 588.282 1029.54 571.859 1033.44 551.526C1039.3 522.199 1050.22 499.128 1068.57 480.75C1072.08 477.231 1079.89 470.192 1082.62 471.365C1085.35 472.147 1086.52 482.314 1087.69 485.442C1090.04 490.916 1095.11 494.436 1100.18 493.654C1106.43 492.872 1112.28 487.397 1112.28 477.231C1112.28 467.846 1108.38 460.025 1103.31 453.769C1095.5 443.993 1083.4 441.256 1071.69 446.34C1035 462.372 1005.34 518.679 1005.34 566.385C1005.34 595.712 1018.61 613.308 1047.1 613.308Z" fill="#4D4D4D"/>
<path d="M1127.98 614.09C1131.89 614.09 1135.79 613.308 1138.91 608.615C1143.21 602.359 1148.67 570.686 1151.01 561.301C1152.18 556.609 1152.96 556.218 1158.04 557.391C1174.04 560.519 1199.8 581.244 1220.49 598.84C1228.29 605.096 1234.93 610.962 1243.12 603.532C1247.81 599.231 1248.59 592.974 1245.47 587.891C1240.78 580.853 1224.78 567.167 1217.36 562.083L1184.97 539.404C1184.58 538.622 1190.04 535.102 1202.14 526.891C1227.9 509.686 1254.83 487.788 1264.98 467.846C1267.71 462.372 1266.15 455.724 1261.47 452.205C1256.4 448.686 1249.37 449.077 1244.3 454.16C1233.37 465.109 1227.12 477.622 1207.61 491.308C1196.29 499.128 1184.19 506.949 1172.87 514.769L1167.01 518.679C1164.28 520.243 1161.55 521.025 1165.84 517.115C1193.56 491.699 1216.58 462.372 1236.1 433.436C1254.44 406.455 1267.32 377.91 1267.32 351.32C1267.32 333.724 1253.27 323.166 1232.98 330.205C1203.31 340.762 1170.92 402.936 1158.04 440.474C1143.6 483.487 1111.98 593.756 1117.84 606.66C1119.79 610.962 1123.69 614.09 1127.98 614.09ZM1176.38 469.41C1176.38 456.115 1204.48 398.634 1218.15 378.692C1222.83 371.653 1236.88 356.012 1240 356.012C1245.86 356.012 1227.51 397.852 1216.97 414.666C1209.56 426.006 1176.38 471.365 1176.38 469.41Z" fill="#4D4D4D"/>
<path d="M1396.86 507.34C1403.11 505.775 1406.62 500.301 1406.23 494.045C1405.84 488.179 1402.33 485.051 1396.08 483.096C1390.23 481.532 1308.27 479.968 1300.85 482.314C1295.78 483.878 1292.26 488.57 1292.26 494.436C1292.26 499.91 1296.17 504.211 1301.63 505.775C1310.61 508.122 1391.01 509.295 1396.86 507.34Z" fill="#4D4D4D"/>
<path d="M1462.86 607.051C1480.43 607.051 1501.5 593.365 1514.38 575.769C1532.73 550.352 1538.97 525.327 1533.12 499.519C1530 485.833 1524.53 467.846 1505.8 461.59C1504.63 461.198 1503.46 460.416 1502.67 459.243C1488.23 444.775 1469.11 456.506 1453.5 475.666C1435.93 497.173 1425.78 522.981 1425.78 561.692C1425.78 583.981 1439.05 607.051 1462.86 607.051ZM1464.82 580.461C1455.84 581.635 1451.93 573.423 1451.93 565.211C1451.93 535.885 1469.89 480.359 1488.23 480.359C1499.16 480.359 1508.92 503.429 1508.92 522.199C1508.92 547.224 1485.89 578.115 1464.82 580.461Z" fill="#4D4D4D"/>
</svg>
