<svg width="115" height="112" viewBox="0 0 115 112" fill="none" xmlns="http://www.w3.org/2000/svg">
<path d="M92.2201 90.2334L39.652 111.472C38.2587 112.034 36.6994 112.02 35.3164 111.433C33.9334 110.846 32.8398 109.734 32.2759 108.342L0.412956 29.4898C0.133934 28.7993 -0.00628692 28.0605 0.000274422 27.3158C0.0068434 26.571 0.160072 25.8349 0.451233 25.1494C0.742386 24.4639 1.16576 23.8424 1.69716 23.3206C2.22855 22.7987 2.85755 22.3867 3.54823 22.108L56.1164 0.869915C56.8069 0.590893 57.5456 0.450642 58.2904 0.457203C59.0351 0.463772 59.7713 0.617024 60.4568 0.908185C61.1423 1.19934 61.7637 1.62271 62.2856 2.1541C62.8074 2.68549 63.2194 3.31449 63.4981 4.00517L95.3497 82.8517C95.9114 84.2456 95.8967 85.8055 95.3088 87.1887C94.7209 88.5718 93.6079 89.6649 92.2144 90.2277L92.2201 90.2334ZM75.3361 73.0433C73.8325 73.0433 72.3904 73.6406 71.3272 74.7039C70.2639 75.7671 69.6666 77.2092 69.6666 78.7129C69.6666 80.2165 70.2639 81.6586 71.3272 82.7219C72.3904 83.7851 73.8325 84.3824 75.3361 84.3824C76.8398 84.3824 78.2819 83.7851 79.3451 82.7219C80.4084 81.6586 81.0057 80.2165 81.0057 78.7129C81.0057 77.2092 80.4084 75.7671 79.3451 74.7039C78.2819 73.6407 76.8398 73.0433 75.3361 73.0433Z" fill="#7D98FF"/>
<path d="M86.6752 5.00866L76.1298 5.00865L92.3447 45.1378L92.3447 10.6782C92.3447 9.17455 91.7474 7.73248 90.6842 6.66923C89.6209 5.60598 88.1788 5.00866 86.6752 5.00866Z" fill="#F7AD53"/>
<path d="M111.338 19.88L103.684 16.7901L103.684 53.954L114.467 27.2617C115.031 25.8678 115.018 24.307 114.431 22.9227C113.844 21.5384 112.732 20.4439 111.338 19.88Z" fill="#71BA9A"/>
</svg>
