<svg width="339" height="119" viewBox="0 0 339 119" fill="none" xmlns="http://www.w3.org/2000/svg">
<path d="M47.8935 118.209C52.362 118.209 55.7133 115.818 59.703 112.471C68.64 104.821 75.5023 94.9384 80.9283 86.6502C83.003 83.6218 82.8434 79.7964 80.1304 78.0431C76.1407 75.6523 73.4277 78.8401 70.8742 82.6654C66.5654 89.041 63.214 93.8227 59.3839 97.8074C56.5113 100.995 49.9682 107.849 47.7339 107.211C44.8613 106.574 44.0634 97.4886 44.0634 90.7943C44.0634 89.3598 44.5421 87.9253 45.3401 86.8095L49.0106 81.5497C60.501 64.9732 68.9592 49.1937 74.7044 33.0953C77.8961 24.1695 81.7263 12.3747 74.7044 8.54936C68.64 5.20218 61.9373 11.7372 56.8305 19.0691C49.8086 29.27 44.223 41.2242 40.3928 53.6566C39.9141 54.7723 39.7545 54.7723 38.6374 54.2941C33.8497 51.9033 28.9025 52.0627 23.3169 55.2505C9.91144 62.7418 1.61284 80.5934 0.495721 98.9231C-0.142633 108.805 5.76214 118.209 15.8162 115.34C20.1251 114.065 23.7956 111.356 32.7326 102.43C33.8497 101.314 33.6901 101.473 34.0093 102.748C35.4456 108.008 36.084 109.762 36.8819 111.196C39.1161 115.021 42.7867 118.209 47.8935 118.209ZM49.4894 60.8291C54.277 44.412 58.5859 35.4862 66.5654 24.1695L66.0866 25.7634C61.7777 39.9491 56.3517 50.7876 50.2873 59.7134C49.9682 60.1915 49.8086 60.5103 49.4894 60.8291ZM12.784 104.661C11.6669 104.342 11.1881 102.908 11.1881 98.7638C11.1881 88.4035 14.8587 79.637 20.1251 72.4645C23.1573 68.3204 29.86 62.2636 32.573 63.5387C34.8072 64.6544 35.6052 70.3924 35.1264 75.6523C34.6477 82.1873 32.2538 87.6065 27.4662 92.3882C21.0826 98.7638 15.8162 105.458 12.784 104.661Z" fill="#4D4D4D"/>
<path d="M88.255 115.021C97.5112 115.021 112.991 104.183 113.789 96.5323C113.789 93.9821 112.672 91.5912 109.161 91.5912C103.097 91.7506 95.9153 104.661 88.7338 104.502C83.7866 104.502 81.2332 98.7638 81.8715 92.0694C82.0311 90.4755 82.6694 89.838 84.1057 89.3598C93.0427 86.3314 100.863 81.3903 108.363 71.9863C110.757 68.9579 112.512 65.6108 113.31 62.1042C115.385 53.6566 109.321 46.484 100.703 46.8028C84.7441 47.5998 70.7003 76.4492 71.1791 97.0105C71.4983 106.096 78.201 115.021 88.255 115.021ZM86.6592 76.9274C86.34 77.0868 85.7016 77.2462 86.0208 76.4492C89.3722 69.7549 92.0852 64.495 96.0749 60.5103C99.1071 57.4819 102.778 56.5256 102.778 59.2352C102.778 64.3356 94.0002 73.2615 86.6592 76.9274Z" fill="#4D4D4D"/>
<path d="M139.409 116.297C147.229 116.297 156.645 109.443 163.667 102.43C165.901 99.5607 167.178 97.648 165.103 94.779C163.507 92.707 160.635 92.3882 158.081 93.6633C154.251 95.8947 146.112 105.139 139.25 105.618C132.547 106.096 132.228 99.4013 133.824 91.1131C136.218 79.1589 140.686 69.7549 148.187 62.2636C149.623 60.8291 152.815 57.9601 153.932 58.4382C155.049 58.757 155.528 62.9011 156.007 64.1763C156.964 66.4077 159.039 67.8422 161.113 67.5234C163.667 67.2047 166.061 64.9732 166.061 60.8291C166.061 57.0037 164.465 53.8159 162.39 51.2657C159.198 47.281 154.251 46.1653 149.463 48.2373C134.462 54.7723 122.333 77.7244 122.333 97.1699C122.333 109.124 127.759 116.297 139.409 116.297Z" fill="#4D4D4D"/>
<path d="M172.48 116.615C174.076 116.615 175.672 116.297 176.949 114.384C178.704 111.834 180.939 98.9231 181.896 95.0978C182.375 93.1851 182.694 93.0257 184.769 93.5039C191.312 94.779 201.845 103.227 210.303 110.399C213.495 112.949 216.208 115.34 219.559 112.312C221.474 110.559 221.793 108.008 220.516 105.936C218.601 103.067 212.058 97.4886 209.026 95.4166L195.78 86.172C195.621 85.8532 197.855 84.4187 202.802 81.0715C213.335 74.0584 224.347 65.1326 228.496 57.0037C229.613 54.7723 228.975 52.0627 227.06 50.6282C224.985 49.1937 222.112 49.3531 220.038 51.4251C215.569 55.888 213.016 60.9885 205.036 66.5671C200.408 69.7549 195.461 72.9427 190.833 76.1305L188.439 77.7244C187.322 78.3619 186.205 78.6807 187.96 77.0868C199.291 66.7265 208.707 54.7723 216.686 42.9775C224.187 31.9796 229.453 20.3442 229.453 9.50569C229.453 2.33317 223.708 -1.97035 215.41 0.898663C203.281 5.20218 190.035 30.5451 184.769 45.8465C178.864 63.3793 165.937 108.327 168.331 113.587C169.129 115.34 170.725 116.615 172.48 116.615ZM192.269 57.6413C192.269 52.2221 203.76 28.7918 209.345 20.663C211.26 17.7939 217.006 11.4184 218.282 11.4184C220.676 11.4184 213.175 28.473 208.867 35.3268C205.834 39.9491 192.269 58.4382 192.269 57.6413Z" fill="#4D4D4D"/>
<path d="M282.42 73.1021C284.973 72.4645 286.41 70.2331 286.25 67.6828C286.091 65.292 284.654 64.0169 282.101 63.2199C279.707 62.5824 246.193 61.9448 243.161 62.9011C241.087 63.5387 239.65 65.4514 239.65 67.8422C239.65 70.0737 241.246 71.827 243.48 72.4645C247.151 73.4208 280.026 73.899 282.42 73.1021Z" fill="#4D4D4D"/>
<path d="M309.405 113.746C316.587 113.746 325.205 108.168 330.471 100.995C337.972 90.6349 340.525 80.434 338.131 69.9143C336.855 64.3356 334.62 57.0037 326.96 54.4535C326.481 54.2941 326.003 53.9753 325.683 53.4972C319.779 47.5998 311.959 52.3814 305.575 60.1915C298.394 68.9579 294.244 79.4776 294.244 95.2572C294.244 104.342 299.671 113.746 309.405 113.746ZM310.203 102.908C306.533 103.386 304.937 100.039 304.937 96.6917C304.937 84.7375 312.278 62.1042 319.779 62.1042C324.247 62.1042 328.237 71.5082 328.237 79.1589C328.237 89.3598 318.821 101.952 310.203 102.908Z" fill="#4D4D4D"/>
</svg>
